<?xml version="1.0" standalone="no"?>
<!DOCTYPE svg PUBLIC "-//W3C//DTD SVG 20010904//EN"
 "http://www.w3.org/TR/2001/REC-SVG-20010904/DTD/svg10.dtd">
<svg version="1.0" xmlns="http://www.w3.org/2000/svg"
 width="16.000000pt" height="16.000000pt" viewBox="0 0 16.000000 16.000000"
 preserveAspectRatio="xMidYMid meet">
<metadata>
Created by potrace 1.11, written by Peter Selinger 2001-2013
</metadata>
<g transform="translate(0.000000,16.000000) scale(0.006531,-0.006531)"
fill="#000000" stroke="none">
<path d="M245 1472 c-99 -34 -157 -98 -177 -194 -34 -164 91 -315 257 -311 34
0 77 8 97 16 47 20 112 80 128 117 l12 30 663 0 663 0 12 -30 c16 -38 78 -94
127 -116 100 -44 240 -6 308 83 144 189 -27 461 -259 413 -113 -23 -197 -121
-204 -236 l-4 -64 -644 0 -644 0 0 53 c0 96 -68 196 -157 233 -53 22 -123 24
-178 6z"/>
</g>
</svg>
